# xmcd
#
# Track frame offsets: 
#        150
#        2772
#        18648
#        36409
#        57506
#        72579
#        89901
#        104433
#        122836
#        141222
#        155164
#        171822
#        190480
#        204822
#
# Disc length: 2876 seconds
#
# Revision: 0
# Processed by: cddbd v1.5.2PL0 Copyright (c) Steve Scherf et al.
# Submitted via: ExactAudioCopy v0.95b4
#
DISCID=d50b3a0e
DTITLE=21:03 - 21:03
DYEAR=2006
DGENRE=R&B
TTITLE0=Intro
TTITLE1=Spiritual bizness
TTITLE2=Chozen
TTITLE3=I'm sorry
TTITLE4=Young love
TTITLE5=One love
TTITLE6=Dance
TTITLE7=See me
TTITLE8=The power of christ
TTITLE9=Been there
TTITLE10=Don't say no
TTITLE11=Sweet spirit
TTITLE12=How long
TTITLE13=Shout it out
EXTD=
EXTT0=
EXTT1=
EXTT2=
EXTT3=
EXTT4=
EXTT5=
EXTT6=
EXTT7=
EXTT8=
EXTT9=
EXTT10=
EXTT11=
EXTT12=
EXTT13=
PLAYORDER=
